<?xml version="1.0" encoding="utf-8"?>
<!-- Generator: Adobe Illustrator 24.2.0, SVG Export Plug-In . SVG Version: 6.00 Build 0)  -->
<svg version="1.1" id="Layer_1" xmlns="http://www.w3.org/2000/svg" xmlns:xlink="http://www.w3.org/1999/xlink" x="0px" y="0px"
	 viewBox="0 0 100 27" style="enable-background:new 0 0 100 27;" xml:space="preserve">
<style type="text/css">
	.st0{fill:#1F3544;}
	.st1{fill:#374349;}
	.st2{fill-rule:evenodd;clip-rule:evenodd;fill:#1F3544;}
</style>
<path class="st0" d="M55.4,13.8h-6.9v-12h6.7c0.8,0,1.4,0.1,2,0.3c0.5,0.2,1,0.6,1.2,1c0.3,0.4,0.4,1,0.4,1.6c0,0.7-0.2,1.3-0.6,1.8
	c-0.4,0.5-1.1,0.8-2,0.9v0.1c1,0.1,1.8,0.4,2.3,1c0.5,0.5,0.7,1.2,0.7,2c0,0.7-0.1,1.3-0.4,1.8c-0.3,0.5-0.7,0.9-1.3,1.1
	C56.9,13.7,56.2,13.8,55.4,13.8z M50.3,8.4v3.6h4.8c0.7,0,1.2-0.1,1.6-0.4c0.4-0.3,0.5-0.8,0.5-1.4c0-0.6-0.2-1.1-0.5-1.4
	c-0.3-0.3-0.9-0.4-1.6-0.4H50.3z M50.3,3.5v3.3h4.5c0.7,0,1.2-0.1,1.5-0.4c0.3-0.3,0.5-0.7,0.5-1.3s-0.2-1-0.5-1.2
	c-0.3-0.3-0.8-0.4-1.5-0.4H50.3z"/>
<path class="st0" d="M62.4,13.8h-1.9V4.9h1.8v2.5l0.2,0.1V13.8z M62.4,8.8h-0.4V7.3h0.4c0.1-0.5,0.2-0.9,0.5-1.3
	c0.2-0.4,0.6-0.7,1-0.9c0.4-0.2,0.9-0.3,1.6-0.3c0.7,0,1.2,0.1,1.7,0.4c0.4,0.3,0.7,0.7,0.9,1.1c0.2,0.5,0.3,1,0.3,1.6V9h-1.9V8.2
	c0-0.6-0.1-1.1-0.4-1.4c-0.3-0.3-0.8-0.4-1.4-0.4c-0.8,0-1.3,0.2-1.6,0.6S62.4,8,62.4,8.8z"/>
<path class="st0" d="M77.9,13.8h-1.8v-2.3L76,11.5V8.4c0-0.7-0.2-1.3-0.5-1.5c-0.3-0.3-0.9-0.4-1.8-0.4c-0.8,0-1.4,0.1-1.8,0.4
	c-0.4,0.3-0.6,0.8-0.6,1.4v0.1h-1.9V8.3c0-0.7,0.2-1.3,0.5-1.8c0.4-0.5,0.9-1,1.5-1.3c0.7-0.3,1.5-0.5,2.4-0.5s1.7,0.2,2.3,0.5
	c0.6,0.3,1.1,0.7,1.3,1.3c0.3,0.6,0.4,1.2,0.4,1.9V13.8z M72.1,14c-0.9,0-1.6-0.2-2.2-0.6c-0.5-0.4-0.8-1-0.8-1.7
	c0-0.5,0.1-0.9,0.3-1.2c0.2-0.3,0.6-0.6,1-0.8c0.4-0.2,0.9-0.3,1.5-0.4l4.2-0.4v1.1l-3.7,0.4c-0.5,0.1-0.9,0.2-1.1,0.3
	c-0.2,0.1-0.4,0.4-0.4,0.7c0,0.4,0.1,0.6,0.4,0.8c0.3,0.2,0.7,0.3,1.2,0.3c0.7,0,1.3-0.1,1.8-0.3c0.5-0.2,0.9-0.5,1.2-0.8
	c0.3-0.4,0.4-0.8,0.4-1.4l0.2,0v1.5H76c-0.2,0.8-0.7,1.3-1.4,1.8C73.9,13.8,73.1,14,72.1,14z"/>
<path class="st0" d="M88.8,13.8h-1.9V9c0-0.8-0.2-1.5-0.6-1.9c-0.4-0.4-1.1-0.6-2-0.6c-1,0-1.7,0.3-2.1,0.8
	c-0.5,0.5-0.7,1.2-0.7,2.2l-0.3,0l-0.1-1.8h0.4c0.1-0.5,0.3-1,0.6-1.4c0.3-0.5,0.7-0.8,1.2-1.1c0.5-0.3,1.2-0.4,1.9-0.4
	c0.8,0,1.5,0.2,2,0.5c0.5,0.3,1,0.8,1.2,1.3c0.3,0.6,0.4,1.2,0.4,1.9V13.8z M81.5,13.8h-1.9V4.9h1.8v2.8l0.2,0.1V13.8z"/>
<path class="st0" d="M94.4,14c-0.9,0-1.7-0.2-2.4-0.6c-0.6-0.4-1.1-0.9-1.5-1.6c-0.3-0.7-0.5-1.5-0.5-2.4c0-0.9,0.2-1.7,0.5-2.4
	c0.3-0.7,0.8-1.2,1.4-1.6c0.6-0.4,1.4-0.6,2.3-0.6c1,0,1.9,0.2,2.5,0.7c0.6,0.5,1,1.1,1.2,1.9h0.4v2h-0.3c0-0.9-0.3-1.7-0.8-2.1
	C96.7,6.7,96,6.5,95,6.5c-0.6,0-1.1,0.1-1.6,0.3c-0.5,0.2-0.8,0.5-1,0.9c-0.2,0.4-0.3,1-0.3,1.7c0,0.7,0.1,1.3,0.3,1.7
	c0.2,0.4,0.6,0.7,1,0.9c0.5,0.2,1,0.3,1.6,0.3c0.6,0,1.2-0.1,1.6-0.3c0.5-0.2,0.8-0.5,1.1-0.9c0.2-0.4,0.4-0.9,0.4-1.5h0.3l0.1,1.8
	h-0.4c-0.2,0.9-0.6,1.6-1.2,2C96.3,13.8,95.4,14,94.4,14z M100,13.8h-1.8V11l-0.2-0.2v-9h1.9V13.8z"/>
<path class="st1" d="M50.5,18.5v6.1h-0.9v-5.2h0l-1.4,1v-0.9l1.5-1H50.5z"/>
<path class="st1" d="M54.2,18.4c0.3,0,0.5,0.1,0.8,0.1c0.3,0.1,0.5,0.3,0.7,0.5c0.2,0.2,0.4,0.5,0.5,0.9c0.1,0.4,0.2,0.8,0.2,1.4
	c0,0.5-0.1,1-0.2,1.4c-0.1,0.4-0.3,0.8-0.5,1c-0.2,0.3-0.4,0.5-0.7,0.7c-0.3,0.1-0.6,0.2-1,0.2c-0.4,0-0.7-0.1-1-0.2
	c-0.3-0.1-0.5-0.3-0.7-0.6c-0.2-0.3-0.3-0.5-0.3-0.9H53c0.1,0.3,0.2,0.5,0.4,0.6c0.2,0.2,0.4,0.2,0.7,0.2c0.4,0,0.8-0.2,1-0.6
	c0.2-0.4,0.4-0.9,0.4-1.6h0c-0.1,0.2-0.2,0.3-0.4,0.4c-0.2,0.1-0.3,0.2-0.5,0.3c-0.2,0.1-0.4,0.1-0.6,0.1c-0.3,0-0.7-0.1-1-0.3
	c-0.3-0.2-0.5-0.4-0.7-0.7c-0.2-0.3-0.3-0.6-0.3-1c0-0.4,0.1-0.7,0.3-1c0.2-0.3,0.4-0.6,0.7-0.7C53.4,18.5,53.7,18.4,54.2,18.4z
	 M54.2,19.2c-0.2,0-0.4,0.1-0.6,0.2c-0.2,0.1-0.3,0.3-0.4,0.5c-0.1,0.2-0.2,0.4-0.2,0.6c0,0.2,0.1,0.5,0.2,0.6
	c0.1,0.2,0.2,0.3,0.4,0.5c0.2,0.1,0.4,0.2,0.6,0.2c0.2,0,0.3,0,0.5-0.1c0.1-0.1,0.3-0.2,0.4-0.3c0.1-0.1,0.2-0.3,0.3-0.4
	c0.1-0.2,0.1-0.3,0.1-0.5c0-0.2-0.1-0.4-0.2-0.6c-0.1-0.2-0.2-0.3-0.4-0.5C54.6,19.2,54.4,19.2,54.2,19.2z"/>
<path class="st1" d="M59.5,24.7c-0.4,0-0.8-0.1-1.1-0.2c-0.3-0.1-0.6-0.3-0.8-0.6c-0.2-0.3-0.3-0.6-0.3-0.9c0-0.3,0.1-0.5,0.2-0.7
	c0.1-0.2,0.3-0.4,0.4-0.5c0.2-0.1,0.4-0.2,0.6-0.3v0c-0.3-0.1-0.5-0.2-0.7-0.5c-0.2-0.3-0.3-0.5-0.3-0.9c0-0.3,0.1-0.6,0.2-0.8
	c0.2-0.2,0.4-0.4,0.7-0.6c0.3-0.1,0.6-0.2,1-0.2c0.4,0,0.7,0.1,1,0.2c0.3,0.1,0.5,0.3,0.7,0.6c0.2,0.2,0.3,0.5,0.3,0.8
	c0,0.3-0.1,0.6-0.3,0.9c-0.2,0.3-0.4,0.4-0.7,0.5v0c0.2,0,0.4,0.1,0.6,0.3c0.2,0.1,0.3,0.3,0.4,0.5c0.1,0.2,0.2,0.5,0.2,0.7
	c0,0.3-0.1,0.6-0.3,0.9c-0.2,0.3-0.4,0.5-0.8,0.6C60.3,24.6,59.9,24.7,59.5,24.7z M59.5,23.9c0.3,0,0.5,0,0.6-0.1
	c0.2-0.1,0.3-0.2,0.4-0.4c0.1-0.2,0.2-0.3,0.2-0.5c0-0.2-0.1-0.4-0.2-0.6c-0.1-0.2-0.3-0.3-0.4-0.4c-0.2-0.1-0.4-0.1-0.6-0.1
	c-0.2,0-0.4,0-0.6,0.1c-0.2,0.1-0.3,0.2-0.4,0.4c-0.1,0.2-0.2,0.4-0.2,0.6c0,0.2,0,0.4,0.1,0.5c0.1,0.2,0.2,0.3,0.4,0.4
	C59,23.9,59.2,23.9,59.5,23.9z M59.5,21.1c0.2,0,0.4,0,0.5-0.1c0.2-0.1,0.3-0.2,0.4-0.3c0.1-0.1,0.1-0.3,0.1-0.5
	c0-0.2,0-0.4-0.1-0.5c-0.1-0.1-0.2-0.3-0.4-0.3c-0.2-0.1-0.3-0.1-0.5-0.1c-0.2,0-0.4,0-0.5,0.1c-0.2,0.1-0.3,0.2-0.4,0.3
	c-0.1,0.1-0.1,0.3-0.1,0.5c0,0.2,0,0.4,0.1,0.5s0.2,0.3,0.4,0.3C59.1,21,59.3,21.1,59.5,21.1z"/>
<path class="st1" d="M64.8,24.7c-0.3,0-0.5-0.1-0.8-0.1c-0.3-0.1-0.5-0.3-0.7-0.5c-0.2-0.2-0.4-0.5-0.5-0.9
	c-0.1-0.4-0.2-0.8-0.2-1.4c0-0.5,0.1-1,0.2-1.4c0.1-0.4,0.3-0.8,0.5-1c0.2-0.3,0.4-0.5,0.7-0.7c0.3-0.1,0.6-0.2,0.9-0.2
	c0.4,0,0.7,0.1,1,0.2c0.3,0.1,0.5,0.3,0.7,0.6c0.2,0.3,0.3,0.5,0.3,0.9H66c-0.1-0.3-0.2-0.5-0.4-0.6c-0.2-0.2-0.4-0.2-0.7-0.2
	c-0.4,0-0.8,0.2-1,0.6c-0.2,0.4-0.4,0.9-0.4,1.6h0c0.1-0.2,0.2-0.3,0.4-0.4c0.2-0.1,0.3-0.2,0.5-0.3c0.2-0.1,0.4-0.1,0.6-0.1
	c0.4,0,0.7,0.1,1,0.3c0.3,0.2,0.5,0.4,0.7,0.7c0.2,0.3,0.3,0.6,0.3,1c0,0.4-0.1,0.7-0.3,1.1c-0.2,0.3-0.4,0.6-0.7,0.7
	C65.6,24.6,65.2,24.7,64.8,24.7z M64.8,23.9c0.2,0,0.4-0.1,0.6-0.2c0.2-0.1,0.3-0.3,0.4-0.5c0.1-0.2,0.2-0.4,0.2-0.7
	c0-0.2-0.1-0.4-0.2-0.6c-0.1-0.2-0.2-0.3-0.4-0.5c-0.2-0.1-0.4-0.2-0.6-0.2c-0.2,0-0.3,0-0.5,0.1c-0.1,0.1-0.3,0.2-0.4,0.3
	c-0.1,0.1-0.2,0.3-0.3,0.4c-0.1,0.2-0.1,0.3-0.1,0.5c0,0.2,0.1,0.4,0.2,0.6c0.1,0.2,0.3,0.4,0.4,0.5C64.4,23.8,64.6,23.9,64.8,23.9z
	"/>
<path class="st2" d="M11.3,2.5C10.1,0.9,8.7,0,7.1,0C3.2,0,0,6,0,13.5c0,7.4,3.2,13.5,7.1,13.5c1.6,0,3-0.9,4.2-2.5
	c1.2,1.6,2.6,2.5,4.2,2.5c1.6,0,3-0.9,4.2-2.5c1.2,1.6,2.6,2.5,4.2,2.5c1.6,0,3-0.9,4.2-2.5c1.2,1.6,2.6,2.5,4.2,2.5
	c3.9,0,7.1-6,7.1-13.5C39.2,6,36,0,32.1,0c-1.6,0-3,0.9-4.2,2.5C26.7,0.9,25.3,0,23.8,0c-1.6,0-3,0.9-4.2,2.5C18.4,0.9,17,0,15.4,0
	C13.9,0,12.5,0.9,11.3,2.5z M13.7,13.5c0,3.6-0.8,6.9-2,9.2c-0.1,0.2-0.2,0.4-0.4,0.6c-0.1-0.2-0.2-0.4-0.4-0.6
	c-1.2-2.3-2-5.6-2-9.2c0-3.6,0.8-6.9,2-9.2C11,4,11.2,3.8,11.3,3.6c0.1,0.2,0.2,0.4,0.4,0.6C12.9,6.6,13.7,9.8,13.7,13.5z M10.9,3
	C9.3,5.5,8.3,9.3,8.3,13.5c0,4.2,1,7.9,2.6,10.4c-1.1,1.6-2.5,2.4-3.8,2.4c-1.6,0-3.3-1.3-4.5-3.6c-1.2-2.3-2-5.6-2-9.2
	c0-3.6,0.8-6.9,2-9.2c1.2-2.4,2.9-3.6,4.5-3.6C8.5,0.6,9.8,1.4,10.9,3z M27.6,3c-1.1-1.6-2.5-2.4-3.8-2.4c-1.3,0-2.7,0.8-3.8,2.4
	c1.6,2.5,2.6,6.2,2.6,10.4c0,4.2-1,7.9-2.6,10.4c1.1,1.6,2.5,2.4,3.8,2.4c1.3,0,2.7-0.8,3.8-2.4c-1.6-2.5-2.6-6.2-2.6-10.4
	C24.9,9.3,26,5.5,27.6,3z M27.9,23.3c-0.1-0.2-0.2-0.4-0.4-0.6c-1.2-2.3-2-5.6-2-9.2c0-3.6,0.8-6.9,2-9.2c0.1-0.2,0.2-0.4,0.4-0.6
	C28,3.8,28.2,4,28.3,4.2c1.2,2.3,2,5.6,2,9.2c0,3.6-0.8,6.9-2,9.2C28.2,22.9,28,23.1,27.9,23.3z M28.3,23.9
	c1.6-2.5,2.6-6.2,2.6-10.4c0-4.2-1-7.9-2.6-10.4c1.1-1.6,2.5-2.4,3.8-2.4c1.6,0,3.3,1.3,4.5,3.6c1.2,2.3,2,5.6,2,9.2
	c0,3.6-0.8,6.9-2,9.2c-1.2,2.4-2.9,3.6-4.5,3.6C30.7,26.3,29.4,25.5,28.3,23.9z M20,4.2c-0.1-0.2-0.2-0.4-0.4-0.6
	c-0.1,0.2-0.2,0.4-0.4,0.6c-1.2,2.3-2,5.6-2,9.2c0,3.6,0.8,6.9,2,9.2c0.1,0.2,0.2,0.4,0.4,0.6c0.1-0.2,0.2-0.4,0.4-0.6
	c1.2-2.3,2-5.6,2-9.2C22,9.8,21.2,6.6,20,4.2z M16.6,13.5c0-4.2,1-7.9,2.6-10.4c-1.1-1.6-2.5-2.4-3.8-2.4c-1.3,0-2.7,0.8-3.8,2.4
	c1.6,2.5,2.6,6.2,2.6,10.4c0,4.2-1,7.9-2.6,10.4c1.1,1.6,2.5,2.4,3.8,2.4c1.3,0,2.7-0.8,3.8-2.4C17.6,21.4,16.6,17.7,16.6,13.5z"/>
</svg>
