<?xml version="1.0" encoding="utf-8"?>
<!-- Generator: Adobe Illustrator 24.2.0, SVG Export Plug-In . SVG Version: 6.00 Build 0)  -->
<svg version="1.1" id="Layer_1" xmlns="http://www.w3.org/2000/svg" xmlns:xlink="http://www.w3.org/1999/xlink" x="0px" y="0px"
	 viewBox="0 0 100 32" style="enable-background:new 0 0 100 32;" xml:space="preserve">
<style type="text/css">
	.st0{fill:#1F3544;}
	.st1{fill-rule:evenodd;clip-rule:evenodd;fill:#1F3544;}
</style>
<path class="st0" d="M30.9,8.8h-2.2v9.4c0,0.7-0.1,1.2-0.4,1.8c-0.3,0.5-0.7,0.9-1.2,1.2c-0.5,0.3-1.2,0.4-1.9,0.4
	c-0.7,0-1.4-0.1-1.9-0.4c-0.5-0.3-0.9-0.7-1.2-1.2c-0.3-0.5-0.4-1.1-0.4-1.8V8.8h-2.2v9.6c0,1,0.2,1.9,0.7,2.7
	c0.5,0.8,1.2,1.4,2,1.8c0.9,0.4,1.9,0.7,3,0.7c1.2,0,2.2-0.2,3-0.7c0.9-0.4,1.5-1.1,2-1.8c0.5-0.8,0.7-1.7,0.7-2.7V8.8z"/>
<path class="st1" d="M39.1,23.3h4.7c1.5,0,2.7-0.3,3.8-0.9c1-0.6,1.8-1.4,2.4-2.5c0.6-1.1,0.8-2.4,0.8-3.9c0-1.5-0.3-2.8-0.8-3.9
	c-0.5-1.1-1.3-1.9-2.4-2.5c-1-0.6-2.2-0.9-3.7-0.9h-4.9V23.3z M43.7,21.4h-2.4V10.7h2.5c1.1,0,1.9,0.2,2.7,0.6
	c0.7,0.4,1.3,1,1.6,1.8c0.4,0.8,0.5,1.8,0.5,2.9c0,1.2-0.2,2.1-0.5,2.9c-0.4,0.8-0.9,1.4-1.6,1.8C45.7,21.2,44.8,21.4,43.7,21.4z"/>
<path class="st0" d="M60.7,23.3V8.8h-2.2v14.5H60.7z"/>
<path class="st0" d="M73.9,14.5l-3.5-5.7h-2.5l4.6,7.3l-4.6,7.3h2.6l3.5-5.6H74l3.5,5.6h2.6l-4.6-7.3L80,8.8h-2.5L74,14.5H73.9z"/>
<path class="st1" d="M17.5,0C7.8,0,0,7.8,0,17.5v14.2h82.5c9.7,0,17.5-7.8,17.5-17.5V0H17.5z M93.3,0.8v13.3
	c0,7.8-5.1,14.4-12.1,16.7h1.3c9.2,0,16.7-7.5,16.7-16.7V0.8H93.3z M75.8,30.8c9.2,0,16.7-7.5,16.7-16.7V0.8H24.2
	C15,0.8,7.5,8.3,7.5,17.5v13.3H75.8z M6.7,17.5v13.3H0.8V17.5c0-9.2,7.5-16.7,16.7-16.7h1.3C11.8,3.1,6.7,9.7,6.7,17.5z"/>
</svg>
