<?xml version="1.0" encoding="utf-8"?>
<!-- Generator: Adobe Illustrator 24.2.0, SVG Export Plug-In . SVG Version: 6.00 Build 0)  -->
<svg version="1.1" id="Layer_1" xmlns="http://www.w3.org/2000/svg" xmlns:xlink="http://www.w3.org/1999/xlink" x="0px" y="0px"
	 viewBox="0 0 100 34" style="enable-background:new 0 0 100 34;" xml:space="preserve">
<style type="text/css">
	.st0{fill:#1F3544;}
</style>
<path class="st0" d="M30.5,11v11l-10.1,5.5v-11L30.5,11z"/>
<path class="st0" d="M20.3,16.6v11l-10.2,5.5v-11L20.3,16.6z"/>
<path class="st0" d="M10.1,33.1L0,27.6v-11l10.1,5.5V33.1z"/>
<path class="st0" d="M0,5.5L10.1,0l10.2,5.5L10.1,11L0,5.5z"/>
<path class="st0" d="M10.1,22.1L0,16.6v-11L10.1,11V22.1z"/>
<path class="st0" d="M44.7,14.2v-1L51,3.9h-6.3V2.7h8v1L46.4,13h6.3v1.2H44.7z"/>
<path class="st0" d="M62.6,2.7H64v7.7c0,0.8-0.2,1.5-0.6,2.1c-0.4,0.6-0.9,1.1-1.6,1.5c-0.7,0.4-1.5,0.5-2.4,0.5
	c-0.9,0-1.7-0.2-2.4-0.5c-0.7-0.4-1.2-0.8-1.6-1.5c-0.4-0.6-0.6-1.3-0.6-2.1V2.7h1.4v7.5c0,0.6,0.1,1.1,0.4,1.5
	c0.2,0.4,0.6,0.8,1.1,1c0.5,0.2,1,0.4,1.7,0.4s1.2-0.1,1.7-0.4c0.5-0.3,0.8-0.6,1.1-1c0.2-0.4,0.4-0.9,0.4-1.5V2.7z"/>
<path class="st0" d="M66.8,2.7h1.7l3.9,9.6h0.1l3.9-9.6h1.7v11.6h-1.3V5.5h-0.1l-3.6,8.8h-1.3l-3.6-8.8h-0.1v8.8h-1.3V2.7z"/>
<path class="st0" d="M81.4,14.2H80l4.2-11.6h1.4l4.2,11.6h-1.5L85,4.5h-0.1L81.4,14.2z M82,9.7h5.9V11H82V9.7z"/>
<path class="st0" d="M91.7,14.2V2.7h3.9c0.9,0,1.6,0.2,2.2,0.5c0.6,0.3,1,0.7,1.3,1.3c0.3,0.5,0.4,1.1,0.4,1.8
	c0,0.7-0.1,1.3-0.4,1.8c-0.3,0.5-0.7,0.9-1.3,1.2c-0.6,0.3-1.3,0.4-2.2,0.4h-3.2V8.5h3.1c0.6,0,1.1-0.1,1.5-0.3
	c0.4-0.2,0.7-0.4,0.8-0.8c0.2-0.3,0.3-0.7,0.3-1.2c0-0.5-0.1-0.9-0.3-1.2c-0.2-0.3-0.4-0.6-0.8-0.8c-0.4-0.2-0.9-0.3-1.5-0.3h-2.5
	v10.3H91.7z M97.2,9l2.8,5.2h-1.6L95.6,9H97.2z"/>
<path class="st0" d="M54.4,22.2H53c-0.1-0.4-0.2-0.8-0.4-1.1c-0.2-0.3-0.5-0.6-0.7-0.8c-0.3-0.2-0.6-0.4-1-0.5
	c-0.4-0.1-0.7-0.2-1.1-0.2c-0.7,0-1.3,0.2-1.9,0.5c-0.6,0.4-1,0.9-1.3,1.6c-0.3,0.7-0.5,1.5-0.5,2.5c0,1,0.2,1.8,0.5,2.5
	c0.3,0.7,0.8,1.2,1.3,1.6c0.6,0.4,1.2,0.5,1.9,0.5c0.4,0,0.8-0.1,1.1-0.2c0.4-0.1,0.7-0.3,1-0.5c0.3-0.2,0.5-0.5,0.7-0.8
	c0.2-0.3,0.4-0.7,0.4-1.1h1.4c-0.1,0.6-0.3,1.1-0.6,1.6c-0.3,0.5-0.6,0.9-1,1.2c-0.4,0.3-0.9,0.6-1.4,0.7c-0.5,0.2-1.1,0.3-1.6,0.3
	c-1,0-1.9-0.2-2.6-0.7c-0.8-0.5-1.4-1.2-1.8-2.1s-0.7-1.9-0.7-3.2c0-1.2,0.2-2.3,0.7-3.2c0.4-0.9,1-1.6,1.8-2.1
	c0.8-0.5,1.6-0.7,2.6-0.7c0.6,0,1.1,0.1,1.6,0.3c0.5,0.2,1,0.4,1.4,0.7c0.4,0.3,0.8,0.7,1,1.2C54.1,21.1,54.3,21.6,54.4,22.2z"/>
<path class="st0" d="M66.4,24.4c0,1.2-0.2,2.3-0.7,3.2s-1,1.6-1.8,2.1c-0.8,0.5-1.6,0.7-2.6,0.7c-1,0-1.9-0.2-2.6-0.7
	c-0.8-0.5-1.4-1.2-1.8-2.1s-0.7-1.9-0.7-3.2c0-1.2,0.2-2.3,0.7-3.2c0.4-0.9,1-1.6,1.8-2.1c0.8-0.5,1.6-0.7,2.6-0.7
	c1,0,1.9,0.2,2.6,0.7c0.8,0.5,1.4,1.2,1.8,2.1C66.2,22.1,66.4,23.1,66.4,24.4z M65.1,24.4c0-1-0.2-1.8-0.5-2.5
	c-0.3-0.7-0.8-1.2-1.3-1.6c-0.6-0.4-1.2-0.5-1.9-0.5c-0.7,0-1.3,0.2-1.9,0.5c-0.6,0.4-1,0.9-1.3,1.6c-0.3,0.7-0.5,1.5-0.5,2.5
	c0,1,0.2,1.8,0.5,2.5c0.3,0.7,0.8,1.2,1.3,1.6c0.6,0.4,1.2,0.5,1.9,0.5c0.7,0,1.3-0.2,1.9-0.5c0.6-0.4,1-0.9,1.3-1.6
	C64.9,26.2,65.1,25.4,65.1,24.4z"/>
<path class="st0" d="M78,18.6v11.6h-1.4l-6.3-9.1h-0.1v9.1h-1.4V18.6h1.4l6.3,9.1h0.1v-9.1H78z"/>
<path class="st0" d="M87.1,21.5c-0.1-0.6-0.3-1-0.8-1.3c-0.5-0.3-1.1-0.5-1.8-0.5c-0.5,0-1,0.1-1.3,0.2c-0.4,0.2-0.7,0.4-0.9,0.7
	c-0.2,0.3-0.3,0.6-0.3,1c0,0.3,0.1,0.6,0.2,0.8c0.2,0.2,0.3,0.4,0.6,0.5c0.2,0.1,0.5,0.3,0.7,0.4c0.3,0.1,0.5,0.2,0.7,0.2l1.2,0.3
	c0.3,0.1,0.6,0.2,1,0.3c0.4,0.1,0.7,0.3,1.1,0.6c0.3,0.2,0.6,0.5,0.8,0.9c0.2,0.4,0.3,0.8,0.3,1.4c0,0.6-0.2,1.2-0.5,1.7
	c-0.3,0.5-0.8,0.9-1.4,1.2c-0.6,0.3-1.4,0.4-2.3,0.4c-0.8,0-1.5-0.1-2.2-0.4c-0.6-0.3-1.1-0.6-1.4-1.1c-0.3-0.5-0.5-1-0.6-1.7h1.4
	c0,0.4,0.2,0.8,0.4,1.1c0.3,0.3,0.6,0.5,1,0.6c0.4,0.1,0.8,0.2,1.3,0.2c0.5,0,1-0.1,1.4-0.3c0.4-0.2,0.8-0.4,1-0.7
	c0.2-0.3,0.4-0.7,0.4-1.1c0-0.4-0.1-0.7-0.3-0.9c-0.2-0.2-0.5-0.4-0.8-0.6c-0.4-0.2-0.7-0.3-1.1-0.4l-1.4-0.4
	c-0.9-0.3-1.6-0.6-2.1-1.1c-0.5-0.5-0.8-1.1-0.8-1.9c0-0.6,0.2-1.2,0.5-1.7c0.4-0.5,0.8-0.9,1.4-1.1c0.6-0.3,1.3-0.4,2-0.4
	c0.7,0,1.4,0.1,2,0.4c0.6,0.3,1,0.6,1.4,1.1c0.3,0.5,0.5,1,0.5,1.6H87.1z"/>
</svg>
