<?xml version="1.0" encoding="utf-8"?>
<!-- Generator: Adobe Illustrator 24.2.0, SVG Export Plug-In . SVG Version: 6.00 Build 0)  -->
<svg version="1.1" id="Layer_1" xmlns="http://www.w3.org/2000/svg" xmlns:xlink="http://www.w3.org/1999/xlink" x="0px" y="0px"
	 viewBox="0 0 100 35" style="enable-background:new 0 0 100 35;" xml:space="preserve">
<style type="text/css">
	.st0{fill-rule:evenodd;clip-rule:evenodd;fill:#1F3544;}
	.st1{fill:#1F3544;}
</style>
<path class="st0" d="M12.2,5.1c2.1,2.1,3.6,4.6,4.4,7.4c0.5,1.6,0.7,3.2,0.7,4.8s-0.2,3.3-0.7,4.8c-0.8,2.8-2.3,5.3-4.4,7.4
	c-3.1,3.1-7.2,4.9-11.5,5c-0.2,0-0.5,0-0.7,0L0,0c0.2,0,0.5,0,0.7,0C5,0.2,9.1,2,12.2,5.1z M11.7,29c-2.9,2.9-6.9,4.7-11,4.8l0-33.1
	c4.1,0.2,8.1,1.9,11,4.8c3.1,3.1,4.8,7.3,4.8,11.7S14.8,25.9,11.7,29z"/>
<path class="st0" d="M17.2,17.3V0c0.2,0,0.5,0,0.7,0c4.3,0.2,8.4,2,11.5,5c3.2,3.2,5,7.6,5,12.2c0,4.6-1.8,9-5,12.2
	c-3.1,3.1-7.2,4.9-11.5,5c-0.2,0-0.5,0-0.7,0V17.3z M17.9,0.7c4.1,0.2,8.1,1.9,11,4.8c3.1,3.1,4.8,7.3,4.8,11.7S32,25.9,28.9,29
	c-2.9,2.9-6.9,4.7-11,4.8V0.7z"/>
<path class="st0" d="M65.1,7.1L64,9.7h-1.2l4-9.1l4,9.1h-1.2l-1.1-2.6H65.1z M65.5,6.1h2.7l-1.3-3.1L65.5,6.1z"/>
<path class="st1" d="M57.3,7c0.2,0.3,0.4,0.7,0.6,0.9c0.2,0.3,0.5,0.5,0.7,0.6c0.3,0.1,0.6,0.2,0.9,0.2c0.3,0,0.6-0.1,0.8-0.2
	c0.2-0.1,0.4-0.3,0.5-0.5c0.1-0.2,0.2-0.4,0.2-0.7c0-0.4-0.1-0.7-0.3-0.9c-0.2-0.2-0.4-0.4-0.7-0.6c-0.3-0.1-0.6-0.3-0.9-0.4
	c-0.2-0.1-0.5-0.2-0.7-0.3c-0.3-0.1-0.5-0.3-0.8-0.5c-0.2-0.2-0.4-0.4-0.6-0.7c-0.1-0.3-0.2-0.6-0.2-1c0-0.4,0.1-0.8,0.3-1.2
	c0.2-0.3,0.5-0.6,0.9-0.8c0.4-0.2,0.8-0.3,1.3-0.3c0.5,0,0.9,0.1,1.2,0.3c0.4,0.2,0.7,0.4,0.9,0.7c0.2,0.3,0.4,0.6,0.6,0.9l-0.9,0.5
	C61.1,3,61,2.8,60.8,2.6c-0.2-0.2-0.4-0.4-0.6-0.5c-0.2-0.1-0.5-0.2-0.9-0.2c-0.3,0-0.6,0.1-0.8,0.2c-0.2,0.1-0.3,0.2-0.4,0.4
	C58,2.6,58,2.8,58,3c0,0.2,0,0.4,0.1,0.5c0.1,0.2,0.2,0.3,0.3,0.4c0.2,0.1,0.4,0.3,0.6,0.4c0.3,0.1,0.6,0.3,1,0.4
	c0.2,0.1,0.5,0.2,0.7,0.3c0.3,0.1,0.5,0.3,0.7,0.5C61.7,5.8,61.8,6,62,6.3c0.1,0.3,0.2,0.6,0.2,1c0,0.4-0.1,0.7-0.2,1
	c-0.1,0.3-0.3,0.6-0.6,0.8c-0.2,0.2-0.5,0.4-0.9,0.5c-0.3,0.1-0.6,0.2-1,0.2c-0.5,0-0.9-0.1-1.3-0.3c-0.4-0.2-0.7-0.5-1.1-0.8
	c-0.3-0.3-0.5-0.7-0.7-1.1L57.3,7z"/>
<path class="st1" d="M49.1,1h1.1v5.8c0,0.4,0.1,0.7,0.2,1c0.1,0.3,0.4,0.5,0.6,0.7s0.6,0.2,1,0.2s0.8-0.1,1-0.2s0.5-0.4,0.6-0.7
	c0.1-0.3,0.2-0.6,0.2-1V1H55v5.8C55,7.2,55,7.6,54.8,8c-0.1,0.4-0.3,0.7-0.6,0.9c-0.3,0.3-0.6,0.5-0.9,0.6c-0.4,0.1-0.8,0.2-1.2,0.2
	c-0.4,0-0.9-0.1-1.2-0.2c-0.4-0.1-0.7-0.4-0.9-0.6c-0.3-0.3-0.5-0.6-0.6-0.9c-0.1-0.4-0.2-0.8-0.2-1.2V1z"/>
<path class="st1" d="M49.2,13.4h1.1v8.7h-1.1V13.4z"/>
<path class="st1" d="M59.8,13.4h-1.1v6.5L52.2,13v9.1h1.1v-6.5l6.6,6.9V13.4z"/>
<path class="st1" d="M61,14.4v-1h5.5v1h-2.2v7.7h-1.1v-7.7H61z"/>
<path class="st1" d="M72.6,21.1h-3.9v-3.2h3.7v-1h-3.7v-2.5h3.9v-1h-5v8.7h5V21.1z"/>
<path class="st0" d="M75.5,18.6h1.1l2.4,3.5h1.3l-2.6-3.6c0.2-0.1,0.4-0.1,0.6-0.2c0.4-0.2,0.8-0.5,1.1-0.9c0.3-0.4,0.4-0.9,0.4-1.4
	c0-0.5-0.1-1-0.4-1.4c-0.3-0.4-0.6-0.7-1.1-0.9c-0.4-0.2-0.9-0.3-1.5-0.3h-2.4v8.7h1.1V18.6z M76.8,14.3h-1.3v3.4h1.3
	c0.4,0,0.7-0.1,1-0.2c0.3-0.1,0.5-0.3,0.7-0.6c0.2-0.2,0.2-0.6,0.2-0.9c0-0.4-0.1-0.7-0.2-0.9c-0.2-0.2-0.4-0.4-0.7-0.6
	C77.5,14.4,77.1,14.3,76.8,14.3z"/>
<path class="st1" d="M82.4,13.4h-1.1v8.7h1.1V13.4z"/>
<path class="st0" d="M83.9,17.7c0-0.6,0.1-1.2,0.3-1.8c0.2-0.5,0.5-1,0.9-1.4c0.4-0.4,0.9-0.7,1.4-0.9c0.5-0.2,1.1-0.3,1.7-0.3
	c0.6,0,1.2,0.1,1.7,0.3c0.5,0.2,1,0.5,1.4,0.9c0.4,0.4,0.7,0.9,0.9,1.4c0.2,0.5,0.3,1.1,0.3,1.8c0,0.6-0.1,1.2-0.3,1.8
	c-0.2,0.5-0.5,1-0.9,1.4c-0.4,0.4-0.9,0.7-1.4,0.9c-0.5,0.2-1.1,0.3-1.7,0.3c-0.6,0-1.2-0.1-1.7-0.3c-0.5-0.2-1-0.5-1.4-0.9
	c-0.4-0.4-0.7-0.9-0.9-1.4C84,19,83.9,18.4,83.9,17.7z M85,17.7c0,0.5,0.1,0.9,0.2,1.4c0.2,0.4,0.4,0.8,0.7,1.1
	c0.3,0.3,0.6,0.5,1,0.7c0.4,0.2,0.8,0.2,1.3,0.2c0.5,0,0.9-0.1,1.3-0.2c0.4-0.2,0.8-0.4,1.1-0.7c0.3-0.3,0.5-0.7,0.7-1.1
	c0.2-0.4,0.2-0.9,0.2-1.4c0-0.5-0.1-0.9-0.2-1.4c-0.2-0.4-0.4-0.8-0.7-1.1c-0.3-0.3-0.6-0.5-1.1-0.7c-0.4-0.2-0.8-0.3-1.3-0.3
	c-0.5,0-0.9,0.1-1.3,0.3c-0.4,0.2-0.7,0.4-1,0.7c-0.3,0.3-0.5,0.7-0.7,1.1C85.1,16.8,85,17.3,85,17.7z"/>
<path class="st0" d="M96.3,18.6h-1.1v3.5h-1.1v-8.7h2.4c0.6,0,1.1,0.1,1.5,0.3c0.4,0.2,0.8,0.5,1.1,0.9c0.3,0.4,0.4,0.9,0.4,1.4
	c0,0.5-0.1,1-0.4,1.4c-0.3,0.4-0.6,0.7-1.1,0.9c-0.2,0.1-0.4,0.2-0.6,0.2l2.6,3.6h-1.3L96.3,18.6z M95.2,14.3h1.3
	c0.4,0,0.7,0.1,1,0.2c0.3,0.1,0.5,0.3,0.7,0.6c0.2,0.2,0.2,0.6,0.2,0.9c0,0.4-0.1,0.7-0.2,0.9c-0.2,0.2-0.4,0.4-0.7,0.6
	c-0.3,0.1-0.6,0.2-1,0.2h-1.3V14.3z"/>
<path class="st0" d="M49.2,25.8h2.6c0.6,0,1.2,0.1,1.7,0.3c0.5,0.2,1,0.5,1.4,0.9c0.4,0.4,0.7,0.8,0.9,1.4c0.2,0.5,0.3,1.1,0.3,1.8
	c0,0.6-0.1,1.2-0.3,1.8c-0.2,0.5-0.5,1-0.9,1.4c-0.4,0.4-0.8,0.7-1.4,0.9c-0.5,0.2-1.1,0.3-1.7,0.3h-2.6V25.8z M50.2,33.5v-6.6h1.5
	c0.5,0,0.9,0.1,1.3,0.2c0.4,0.1,0.8,0.4,1,0.7c0.3,0.3,0.5,0.6,0.7,1c0.2,0.4,0.2,0.9,0.2,1.4c0,0.5-0.1,1-0.2,1.4
	c-0.2,0.4-0.4,0.8-0.7,1c-0.3,0.3-0.6,0.5-1,0.7c-0.4,0.1-0.9,0.2-1.3,0.2H50.2z"/>
<path class="st1" d="M62.6,33.5h-3.9v-3.2h3.7v-1h-3.7v-2.5h3.9v-1h-5v8.7h5V33.5z"/>
<path class="st1" d="M64.7,31.9c0.2,0.3,0.4,0.7,0.6,0.9c0.2,0.3,0.5,0.5,0.7,0.6c0.3,0.1,0.6,0.2,0.9,0.2c0.3,0,0.6-0.1,0.8-0.2
	c0.2-0.1,0.4-0.3,0.5-0.5c0.1-0.2,0.2-0.4,0.2-0.7c0-0.4-0.1-0.7-0.3-0.9c-0.2-0.2-0.4-0.4-0.7-0.6c-0.3-0.1-0.6-0.3-0.9-0.4
	c-0.2-0.1-0.5-0.2-0.7-0.3c-0.3-0.1-0.5-0.3-0.8-0.5c-0.2-0.2-0.4-0.4-0.6-0.7c-0.1-0.3-0.2-0.6-0.2-1c0-0.4,0.1-0.8,0.3-1.2
	c0.2-0.3,0.5-0.6,0.9-0.8c0.4-0.2,0.8-0.3,1.3-0.3c0.5,0,0.9,0.1,1.2,0.3c0.4,0.2,0.7,0.4,0.9,0.7c0.2,0.3,0.4,0.6,0.6,0.9l-0.9,0.5
	c-0.1-0.2-0.2-0.4-0.4-0.6c-0.2-0.2-0.4-0.4-0.6-0.5c-0.2-0.1-0.5-0.2-0.9-0.2c-0.3,0-0.6,0.1-0.8,0.2s-0.3,0.2-0.4,0.4
	c-0.1,0.2-0.1,0.3-0.1,0.5c0,0.2,0,0.4,0.1,0.5c0.1,0.2,0.2,0.3,0.3,0.4c0.2,0.1,0.4,0.3,0.6,0.4c0.3,0.1,0.6,0.3,1,0.4
	c0.2,0.1,0.5,0.2,0.7,0.3c0.3,0.1,0.5,0.3,0.7,0.5c0.2,0.2,0.4,0.4,0.5,0.7c0.1,0.3,0.2,0.6,0.2,1c0,0.4-0.1,0.7-0.2,1
	c-0.1,0.3-0.3,0.6-0.6,0.8c-0.2,0.2-0.5,0.4-0.9,0.5c-0.3,0.1-0.6,0.2-1,0.2c-0.5,0-0.9-0.1-1.3-0.3c-0.4-0.2-0.7-0.5-1.1-0.8
	c-0.3-0.3-0.5-0.7-0.7-1.1L64.7,31.9z"/>
<path class="st1" d="M72.3,25.8h-1.1v8.7h1.1V25.8z"/>
<path class="st1" d="M78.3,31.1v-1h4c0,0.6-0.1,1.2-0.3,1.7c-0.2,0.5-0.5,1-0.8,1.4c-0.4,0.4-0.8,0.8-1.3,1
	c-0.5,0.2-1.1,0.4-1.8,0.4c-0.6,0-1.2-0.1-1.7-0.3c-0.5-0.2-1-0.5-1.4-0.9c-0.4-0.4-0.7-0.9-0.9-1.4c-0.2-0.5-0.3-1.1-0.3-1.8
	c0-0.6,0.1-1.2,0.3-1.8c0.2-0.5,0.5-1,0.9-1.4c0.4-0.4,0.9-0.7,1.4-0.9c0.5-0.2,1.1-0.3,1.7-0.3c0.5,0,1,0.1,1.5,0.2
	c0.5,0.1,0.9,0.3,1.2,0.6c0.4,0.3,0.7,0.6,0.9,1L81,28.2c-0.3-0.5-0.7-0.8-1.1-1.1c-0.5-0.3-1.1-0.4-1.7-0.4c-0.5,0-0.9,0.1-1.3,0.2
	c-0.4,0.2-0.7,0.4-1,0.7c-0.3,0.3-0.5,0.7-0.7,1.1c-0.2,0.4-0.2,0.9-0.2,1.4c0,0.5,0.1,1,0.2,1.4c0.2,0.4,0.4,0.8,0.7,1.1
	c0.3,0.3,0.6,0.5,1,0.7c0.4,0.2,0.8,0.2,1.3,0.2c0.4,0,0.8-0.1,1.2-0.2c0.3-0.1,0.6-0.3,0.9-0.5c0.2-0.2,0.5-0.5,0.6-0.8
	c0.2-0.3,0.3-0.6,0.4-1H78.3z"/>
<path class="st1" d="M91.5,25.8h-1.1v6.5l-6.6-6.9v9.1h1.1v-6.5l6.6,6.9V25.8z"/>
</svg>
